<svg xmlns="http://www.w3.org/2000/svg" viewBox="0 0 64 64" width="64" height="64">
  <defs>
    <linearGradient id="o" x1="0" y1="0" x2="1" y2="1">
      <stop offset="0" stop-color="#FFB21E"/><stop offset=".5" stop-color="#FF7417"/><stop offset="1" stop-color="#EC4319"/>
    </linearGradient>
    <linearGradient id="b" x1="0" y1="0" x2="1" y2="1">
      <stop offset="0" stop-color="#3D9DFF"/><stop offset=".55" stop-color="#1467E8"/><stop offset="1" stop-color="#0A4FC4"/>
    </linearGradient>
    <linearGradient id="t" x1="0" y1="0" x2="1" y2="1">
      <stop offset="0" stop-color="#2BD4C0"/><stop offset="1" stop-color="#0B93AB"/>
    </linearGradient>
    <linearGradient id="shine" x1="0" y1="0" x2="1" y2="1">
      <stop offset="0" stop-color="#fff" stop-opacity=".28"/><stop offset=".5" stop-color="#fff" stop-opacity="0"/>
    </linearGradient>
  </defs>

  
  <clipPath id="c"><rect x="4" y="4" width="44" height="50" rx="9"/></clipPath>
  <g clip-path="url(#c)">
    <rect x="4" y="4" width="44" height="50" fill="url(#b)"/>
    <path d="M11.92 4 H48 V40 Z" fill="url(#o)"/>
    <rect x="4" y="4" width="44" height="50" fill="url(#shine)"/>
  </g>
  <rect x="9" y="9" width="34" height="40" rx="4" fill="#fff"/>
  <rect class="a-line" style="--i:0" x="14" y="15" width="24" height="3.8" rx="1.9" fill="#8E9CB3"/>
  <rect class="a-line" style="--i:1" x="14" y="23.5" width="18" height="3.8" rx="1.9" fill="#8E9CB3"/>
  <rect class="a-line" style="--i:2" x="14" y="32" width="22" height="3.8" rx="1.9" fill="#8E9CB3"/>
  <g class="a-pop" style="--i:3">
    <path d="M50.5 48.5L60 58" stroke="url(#o)" stroke-width="6.5" stroke-linecap="round"/>
    <circle cx="42" cy="40" r="13" fill="#fff" fill-opacity=".92" stroke="url(#o)" stroke-width="5"/>
    <path d="M36 36.5h12M36 43.5h8" stroke="url(#b)" stroke-width="3" stroke-linecap="round"/>
  </g>
</svg>
