<svg xmlns="http://www.w3.org/2000/svg" viewBox="0 0 64 64" width="64" height="64">
  <defs>
    <linearGradient id="o" x1="0" y1="0" x2="1" y2="1">
      <stop offset="0" stop-color="#FFB21E"/><stop offset=".5" stop-color="#FF7417"/><stop offset="1" stop-color="#EC4319"/>
    </linearGradient>
    <linearGradient id="b" x1="0" y1="0" x2="1" y2="1">
      <stop offset="0" stop-color="#3D9DFF"/><stop offset=".55" stop-color="#1467E8"/><stop offset="1" stop-color="#0A4FC4"/>
    </linearGradient>
    <linearGradient id="t" x1="0" y1="0" x2="1" y2="1">
      <stop offset="0" stop-color="#2BD4C0"/><stop offset="1" stop-color="#0B93AB"/>
    </linearGradient>
    <linearGradient id="shine" x1="0" y1="0" x2="1" y2="1">
      <stop offset="0" stop-color="#fff" stop-opacity=".28"/><stop offset=".5" stop-color="#fff" stop-opacity="0"/>
    </linearGradient>
  </defs>

  <path d="M32 44L20 61M32 44L44 61" stroke="url(#b)" stroke-width="3.8" stroke-linecap="round"/>
  <path d="M32 44V61" stroke="url(#o)" stroke-width="3.8" stroke-linecap="round"/>
  <rect x="29.5" y="3" width="5" height="7" rx="2" fill="#EC4319"/>
  <rect x="4" y="8" width="56" height="7" rx="3.5" fill="url(#o)"/>
  <rect x="8" y="14" width="48" height="29" fill="#fff"/>
  <rect x="4" y="42" width="56" height="5.5" rx="2.75" fill="url(#b)"/>
  <rect class="a-cell" style="--i:0" x="13" y="19" width="6" height="5" rx="1.5" fill="url(#b)"/>
  <rect class="a-cell" style="--i:1" x="13" y="26.5" width="6" height="5" rx="1.5" fill="url(#b)"/>
  <rect class="a-cell" style="--i:2" x="13" y="34" width="6" height="5" rx="1.5" fill="url(#b)"/>
  <rect class="a-line" style="--i:1" x="22" y="19" width="14" height="5" rx="2.5" fill="url(#o)"/>
  <rect class="a-line" style="--i:2" x="26" y="26.5" width="22" height="5" rx="2.5" fill="url(#b)"/>
  <rect class="a-line" style="--i:3" x="34" y="34" width="17" height="5" rx="2.5" fill="url(#t)"/>
</svg>
