<svg xmlns="http://www.w3.org/2000/svg" viewBox="0 0 64 64" width="64" height="64">
  <defs>
    <linearGradient id="o" x1="0" y1="0" x2="1" y2="1">
      <stop offset="0" stop-color="#FFB21E"/><stop offset=".5" stop-color="#FF7417"/><stop offset="1" stop-color="#EC4319"/>
    </linearGradient>
    <linearGradient id="b" x1="0" y1="0" x2="1" y2="1">
      <stop offset="0" stop-color="#3D9DFF"/><stop offset=".55" stop-color="#1467E8"/><stop offset="1" stop-color="#0A4FC4"/>
    </linearGradient>
    <linearGradient id="t" x1="0" y1="0" x2="1" y2="1">
      <stop offset="0" stop-color="#2BD4C0"/><stop offset="1" stop-color="#0B93AB"/>
    </linearGradient>
    <linearGradient id="shine" x1="0" y1="0" x2="1" y2="1">
      <stop offset="0" stop-color="#fff" stop-opacity=".28"/><stop offset=".5" stop-color="#fff" stop-opacity="0"/>
    </linearGradient>
  </defs>

  
  <clipPath id="c"><rect x="5" y="11" width="54" height="47" rx="10"/></clipPath>
  <g clip-path="url(#c)">
    <rect x="5" y="11" width="54" height="47" fill="url(#b)"/>
    <path d="M14.719999999999999 11 H59 V44.839999999999996 Z" fill="url(#o)"/>
    <rect x="5" y="11" width="54" height="47" fill="url(#shine)"/>
  </g>
  <rect x="10.5" y="24" width="43" height="28.5" rx="4.5" fill="#fff"/>
  <g class="a-pop">
  <circle cx="30" cy="31.5" r="4.6" fill="url(#o)"/>
  <path d="M22 48 C22 41.62 25.52 38.63 30 38.63 C34.480000000000004 38.63 38 41.62 38 48 Z" fill="url(#o)"/></g>
  <g class="a-pop" style="--i:1">
    <circle cx="44" cy="44" r="7" fill="url(#b)" stroke="#fff" stroke-width="2"/>
    <path class="a-draw" style="--i:2" pathLength="1" d="M40.6 44.9 l2.3099999999999996 2.508 l4.29 -5.28" fill="none" stroke="#fff" stroke-width="2" stroke-linecap="round" stroke-linejoin="round"/>
  </g>
  <rect x="17" y="5" width="5.5" height="12" rx="2.75" fill="#EC4319" stroke="#fff" stroke-width="1.5"/>
  <rect x="41.5" y="5" width="5.5" height="12" rx="2.75" fill="#EC4319" stroke="#fff" stroke-width="1.5"/>
</svg>
