<svg xmlns="http://www.w3.org/2000/svg" viewBox="0 0 64 64" width="64" height="64">
  <defs>
    <linearGradient id="o" x1="0" y1="0" x2="1" y2="1">
      <stop offset="0" stop-color="#FFB21E"/><stop offset=".5" stop-color="#FF7417"/><stop offset="1" stop-color="#EC4319"/>
    </linearGradient>
    <linearGradient id="b" x1="0" y1="0" x2="1" y2="1">
      <stop offset="0" stop-color="#3D9DFF"/><stop offset=".55" stop-color="#1467E8"/><stop offset="1" stop-color="#0A4FC4"/>
    </linearGradient>
    <linearGradient id="t" x1="0" y1="0" x2="1" y2="1">
      <stop offset="0" stop-color="#2BD4C0"/><stop offset="1" stop-color="#0B93AB"/>
    </linearGradient>
    <linearGradient id="shine" x1="0" y1="0" x2="1" y2="1">
      <stop offset="0" stop-color="#fff" stop-opacity=".28"/><stop offset=".5" stop-color="#fff" stop-opacity="0"/>
    </linearGradient>
  </defs>

  <clipPath id="c">
    <rect x="5" y="7" width="54" height="40" rx="13"/>
    <path d="M15 38L12 58L31 38z"/>
  </clipPath>
  <g clip-path="url(#c)">
    <rect x="0" y="0" width="64" height="64" fill="url(#b)"/>
    <path d="M14 7H59V40Z" fill="url(#o)"/>
    <rect x="0" y="0" width="64" height="64" fill="url(#shine)"/>
  </g>
  <path class="a-pop" d="M32 38c-8.5-5.6-12.5-9.6-12.5-14a6 6 0 0 1 12.5-2.4A6 6 0 0 1 44.5 24c0 4.4-4 8.4-12.5 14z" fill="#fff"/>
</svg>
